<svg width="850.39" height="850.39" xmlns="http://www.w3.org/2000/svg"><defs><clipPath id="a"><path transform="matrix(1 0 0 -1 0 850.39)" d="M0 850.39h850.39V0H0z"/></clipPath></defs><g data-name="Vrstva 1"><path d="M162.913 495.55h-8.404v6.844h7.153v2.67h-7.153v9.257h-2.802V492.88h11.206zM181.769 492.879h2.802v21.441h-2.802zM219.58 492.88h2.786v21.44h-2.876l-11.907-16.69v16.69h-2.802v-21.44h2.891l11.907 16.751zM246.841 506.49h8.241l-4.128-10.53zm11.311 7.83-2.042-5.188h-10.312l-2.04 5.189h-2.997l8.57-21.441h3.337l8.568 21.44zM294.415 492.88h2.787v21.44h-2.876l-11.907-16.69v16.69h-2.802v-21.44h2.89l11.908 16.751z" fill="#fff"/><g clip-path="url(#a)" transform="translate(1.274 -1.274)"><path d="M327.66 492.074h-3.204l-3.055-4.02h2.504l2.161 2.58 2.175-2.58h2.504zm3.577 19.362c1.46-1.183 2.4-2.716 2.801-4.613h2.906c-.432 2.671-1.654 4.855-3.666 6.57-2.012 1.715-4.426 2.58-7.212 2.58-3.13 0-5.753-1.062-7.853-3.186-2.102-2.124-3.16-4.765-3.16-7.92 0-3.142 1.058-5.782 3.16-7.906 2.1-2.125 4.723-3.187 7.853-3.187 2.786 0 5.2.85 7.212 2.564 2.012 1.715 3.234 3.9 3.666 6.571l-2.906-4.02c-.402-1.883-1.34-3.415-2.8-4.614-1.477-1.184-3.19-1.776-5.172-1.776-2.31 0-4.247.79-5.797 2.383-1.565 1.593-2.34 3.581-2.34 5.963s.775 4.37 2.34 5.964c1.55 1.593 3.487 2.397 5.797 2.397 1.982 0 3.695-.59 5.171-1.79M370.688 494.153h2.787v21.441H370.6l-11.906-16.69v16.69h-2.801v-21.44h2.89l11.906 16.751zM393.704 494.153h2.802v21.441h-2.802zm-.179-2.079 3.175-4.02h3.352l-3.725 4.02zM455.585 515.595h-3.562l-9.715-9.666v9.666h-2.802v-21.441h2.802v9.438l9.551-9.438h3.517l-10.446 10.62zM477.929 507.765h8.24l-4.127-10.53zm11.31 7.83-2.041-5.19h-10.312l-2.042 5.19h-2.995l8.568-21.441h3.339l8.569 21.44zM525.502 494.153h2.787v21.441h-2.876l-11.906-16.69v16.69h-2.802v-21.44h2.891l11.906 16.751zM550.574 512.787c-2.102-2.124-3.16-4.765-3.16-7.92 0-3.142 1.058-5.782 3.16-7.906 2.101-2.125 4.724-3.187 7.853-3.187 2.787 0 5.201.85 7.212 2.564 2.012 1.715 3.234 3.9 3.666 6.571H566.4c-.402-1.882-1.34-3.414-2.8-4.613-1.476-1.184-3.19-1.776-5.172-1.776-2.31 0-4.248.79-5.796 2.383-1.566 1.593-2.34 3.581-2.34 5.963s.774 4.37 2.34 5.964c1.548 1.593 3.486 2.397 5.796 2.397 1.982 0 3.696-.59 5.171-1.79 1.46-1.184 2.4-2.716 2.801-4.614h2.906c-.432 2.671-1.654 4.856-3.666 6.57-2.01 1.715-4.425 2.581-7.212 2.581-3.129 0-5.752-1.063-7.853-3.187M591.055 512.924h9v2.67h-11.802v-21.441h11.654v2.67h-8.852v6.647h7.853v2.67h-7.853zM621.967 512.924h8.092v2.67h-10.894v-21.441h2.802zM662.251 488.054l-3.726 4.02h-2.8l3.173-4.02zm-9.06 19.71h8.241l-4.128-10.53zm11.311 7.83-2.042-5.188h-10.313l-2.041 5.189-2.995-10.53 8.569-10.911h3.338l8.568 21.44zM688.769 496.824v7.77h3.979c1.087 0 1.982-.366 2.682-1.109.7-.728 1.058-1.654 1.058-2.777 0-1.123-.358-2.048-1.058-2.792-.716-.728-1.61-1.092-2.682-1.092zm4.947-4.75h-3.204l-3.055-4.02h2.504l2.176 2.58 2.16-2.58h2.504zm2.593 23.521-7.138-8.514h-.402v8.514h-2.802v-21.442h6.84c1.863 0 3.428.622 4.68 1.866 1.252 1.244 1.877 2.792 1.877 4.66 0 1.82-.625 3.337-1.863 4.566-1.236 1.23-2.787 1.836-4.634 1.836h-.253l7.212 8.514zM105.01 452.93h14.326v13.52H90.684v-51.77h14.326zM151.506 467.366c-6.265 0-11.468-2.015-15.645-6.046-4.176-4.029-6.266-9.086-6.266-15.132V414.68h14.326v31.29c0 2.162.733 3.958 2.2 5.386 1.427 1.466 3.223 2.198 5.385 2.198s3.957-.732 5.422-2.198c1.43-1.428 2.162-3.224 2.162-5.386v-31.29h14.326v31.51c0 6.045-2.089 11.102-6.265 15.131-4.177 4.031-9.38 6.046-15.645 6.046M234.599 466.45h-17.77l-13.886-19.968v19.968h-14.326v-51.77h14.326V434.5l13.739-19.822h17.477l-18.54 25.721zM264.505 446.116h9.965l-4.946-15.535zm21.689-46.604-10.074 11.871h-14.106l7.364-11.87zm-5.165 66.938-2.344-7.145h-18.393l-2.31 7.145h-15.387l18.612-51.77h16.89l18.614 51.77zM330.963 411.383h-16.231l-7.328-11.871h12.604l2.82 4.506 2.859-4.506h12.604zm1.062 24.584c1.576.696 3.188 1.686 4.836 2.93 3.225 2.529 5.057 6.486 5.057 11.725 0 4.764-1.796 8.757-5.423 11.945-3.627 3.187-8.17 4.799-13.63 4.799-5.458 0-10.04-1.612-13.666-4.873-3.664-3.224-5.495-7.254-5.495-12.09h14.729c0 2.308 2.014 4.176 4.653 4.176 3.48.11 5.642-3.37 2.747-5.348-.915-.697-1.795-1.173-2.711-1.466-.916-.293-2.2-.66-3.81-1.136-9.966-2.675-14.95-8.244-14.912-16.78 0-4.544 1.759-8.354 5.239-11.468 3.48-3.078 7.84-4.617 13.043-4.617 5.313 0 9.709 1.539 13.263 4.654 3.518 3.114 5.276 6.997 5.276 11.65l-14.692-11.87c0-2.015-1.722-3.554-3.92-3.554-3.078-.184-4.763 2.967-2.418 4.836 1.429 1.246 2.968 1.795 6.192 2.675 2.162.623 4.03 1.245 5.642 1.94M398.371 437.946c2.674 0 4.726-2.089 4.726-4.91 0-2.785-2.052-4.837-4.726-4.837h-5.643v9.747zm.293-23.267c5.46 0 10.003 1.76 13.666 5.24 3.628 3.517 5.46 7.914 5.46 13.153 0 5.24-1.832 9.637-5.46 13.116-3.663 3.482-8.207 5.24-13.666 5.24h-5.936v15.022h-14.325v-51.77zM443.213 446.116h9.966l-4.946-15.535zm16.524 20.334-2.344-7.145L439 443.77l-2.308 7.145h-15.39l18.613-51.77h16.89l18.614 51.77zM516.32 414.68v13.52H504.63v38.25h-14.325V428.2h-11.724v-13.52zM541.733 428.2v9.746h4.873c2.674 0 4.726-2.089 4.726-4.91 0-2.785-2.052-4.837-4.726-4.837zm8.098 38.25-7.218-16.048h-.88v16.048h-14.326v-51.77H546.9c5.46 0 10.003 1.722 13.666 5.202 3.628 3.482 5.46 7.84 5.46 13.044 0 6.302-3.114 11.578-8.244 14.692l9.82 18.832zM620.736 414.68h18.246v51.77h-14.326v-26.562l-10.589 26.563h-9.599l-10.588-26.563v26.563h-14.327V414.68h18.466l11.395 28.944zM671.25 446.116h9.966l-4.946-15.535zm16.524 20.334-2.344-7.145-18.393-15.535-2.308 7.145H649.34l18.612-51.77h16.891l18.612 51.77zM745.248 414.68h14.325v51.77h-14.325l-17.11-26.49v26.49h-14.327v-51.77h14.327l17.11 26.49z" fill="#fff"/><path d="M454.977 425.363c1.328.932 2.314.32 3.185.076 26.4-7.417 52.364-15.833 76.674-27.942 15.042-7.493 28.26-16.881 37.095-30.561 7.677-11.888 2.546-22.013-12.41-24.481-11.088-1.831-22.246-1.23-33.29.154-33.793 4.23-64.581 15.785-93.344 32.066-5.1 2.887-10.23 5.77-14.76 9.268 21.084 14.937 20.002 34.877 15.94 56.142.914-.971 1.309-1.321 1.616-1.726 15.39-20.33 31.819-39.972 47.85-59.878 3.227-4.007 5.462-4.052 8.904.147-11.711 15.945-25.36 30.844-37.46 46.735m-30.48 41.528c10.685-.763 20.368-.74 30.043-.402 5.205.182 10.4.629 15.59 1.062 2.095.174 3.945.973 4.846 2.874.53 1.119.02 2.047-.971 2.77-1.79 1.31-3.884 1.369-5.713.445-2.157-1.09-4.396-1.164-6.701-1.312-13.614-.87-27.204-.5-41.47.577-4.751 7.23-9.843 14.66-12.694 23.13-.758 2.252-1.133 4.55-4.661 3.825-3.574-.736-4.101-3.164-3.403-5.806 1.19-4.504 4.295-8.285 6.16-12.553.997-2.28 2.227-4.477 3.453-6.914-3.647-1.06-6.75-.081-9.782.335-29.308 4.027-58.691 7.75-87.392 14.682-8.654 2.09-17.13 4.779-25.705 7.137-2.435.67-5.011 1.485-7.033-1.133 1.576-2.94 4.708-3.54 7.425-4.465 23.117-7.88 47.149-12.523 71.45-16.087 17.27-2.533 34.484-5.46 51.948-6.786 1.585-.12 2.764-.615 3.467-1.952 8.688-16.527 17.274-33.088 15.215-52.198-.842-7.812-2.752-15.322-8.72-21.442-2.447-2.508-5.133-4.567-9.16-4.7-2.05-.067-3.994-.78-4.474-2.836 0-1.595 1.215-2.202 2.243-2.886 31.663-21.044 66.172-36.553 104.977-43.23 14.77-2.54 29.779-4.281 44.874-1.617 5.42.956 10.713 2.312 15.41 5.1 8.567 5.083 11.493 12.677 8.096 21.589-3.202 8.402-9.323 15.04-16.172 21.167-13.024 11.652-29.18 18.758-45.556 25.468-22.306 9.14-45.252 16.693-69.021 22.11-1.31.298-2.486.693-3.276 1.737-7.825 10.364-15.667 20.716-23.293 32.31" fill="#dcbe8f"/><path d="M333.63 477.818c-6.108 1.52-9.215-.962-7.83-5.885 2.399-8.516 7.665-15.827 12.498-23.265 20.663-31.798 44.234-61.812 68.42-91.44 1.976-2.419 4.082-4.757 5.472-7.514 2.506-.972 4.68-.632 6.148 1.414 1.582 2.207-.511 3.672-1.73 5.188-25.222 31.37-50.322 62.817-71.994 96.372-3.577 5.54-7.114 11.115-9.871 17.058-1.172 2.525-2.438 5.024-1.112 8.072" fill="#dcbe8f"/></g></g></svg>