<?xml version="1.0" encoding="UTF-8" standalone="no"?>
<svg
   version="1.1"
   width="850.39"
   height="850.39"
   viewBox="0 0 850.39 850.39"
   id="svg72"
   sodipodi:docname="lukas_patrman_logo.svg"
   inkscape:version="1.2.2 (732a01da63, 2022-12-09)"
   xmlns:inkscape="http://www.inkscape.org/namespaces/inkscape"
   xmlns:sodipodi="http://sodipodi.sourceforge.net/DTD/sodipodi-0.dtd"
   xmlns="http://www.w3.org/2000/svg"
   xmlns:svg="http://www.w3.org/2000/svg">
  <sodipodi:namedview
     id="namedview74"
     pagecolor="#505050"
     bordercolor="#eeeeee"
     borderopacity="1"
     inkscape:showpageshadow="0"
     inkscape:pageopacity="0"
     inkscape:pagecheckerboard="0"
     inkscape:deskcolor="#505050"
     showgrid="false"
     inkscape:zoom="0.55503944"
     inkscape:cx="225.20922"
     inkscape:cy="410.78162"
     inkscape:window-width="1920"
     inkscape:window-height="1009"
     inkscape:window-x="-8"
     inkscape:window-y="-8"
     inkscape:window-maximized="1"
     inkscape:current-layer="layer_1" />
  <defs
     id="defs5">
    <clipPath
       id="clip_0">
      <path
         transform="matrix(1,0,0,-1,0,850.39)"
         d="M0 850.39H850.39V0H0Z"
         id="path2" />
    </clipPath>
  </defs>
  <g
     id="layer_1"
     data-name="Vrstva 1"
     transform="translate(1.2739757,-1.2739757)">
    <path
       transform="matrix(1,0,0,-1,161.6387,496.82423)"
       d="m 0,0 h -8.404 v -6.844 h 7.153 v -2.67 h -7.153 v -9.257 h -2.802 V 2.671 H 0 Z"
       fill="#ffffff"
       id="path9" />
    <path
       transform="matrix(1,0,0,-1,0,850.39)"
       d="m 180.495,356.237 h 2.802 v -21.441 h -2.802 z"
       fill="#ffffff"
       id="path11" />
    <path
       transform="matrix(1,0,0,-1,218.3052,494.15333)"
       d="M 0,0 H 2.787 V -21.441 H -0.089 L -11.996,-4.75 v -16.691 h -2.802 V 0 h 2.891 L 0,-16.752 Z"
       fill="#ffffff"
       id="path13" />
    <path
       transform="matrix(1,0,0,-1,245.5674,507.76463)"
       d="M 0,0 H 8.241 L 4.113,10.53 Z M 11.311,-7.83 9.269,-2.641 H -1.043 L -3.084,-7.83 H -6.08 L 2.489,13.611 H 5.827 L 14.395,-7.83 Z"
       fill="#ffffff"
       id="path15" />
    <path
       transform="matrix(1,0,0,-1,293.1406,494.15333)"
       d="M 0,0 H 2.787 V -21.441 H -0.089 L -11.996,-4.75 v -16.691 h -2.802 V 0 h 2.891 L 0,-16.752 Z"
       fill="#ffffff"
       id="path17" />
    <g
       clip-path="url(#clip_0)"
       id="g69">
      <path
         transform="matrix(1,0,0,-1,327.6602,492.07423)"
         d="m 0,0 h -3.204 l -3.055,4.021 h 2.504 l 2.161,-2.58 2.175,2.58 h 2.504 z m 3.577,-19.362 c 1.46,1.183 2.399,2.716 2.801,4.613 h 2.906 c -0.432,-2.671 -1.654,-4.855 -3.666,-6.57 -2.012,-1.715 -4.426,-2.58 -7.212,-2.58 -3.13,0 -5.753,1.062 -7.853,3.186 -2.102,2.124 -3.16,4.765 -3.16,7.921 0,3.141 1.058,5.781 3.16,7.905 2.1,2.125 4.723,3.187 7.853,3.187 2.786,0 5.2,-0.849 7.212,-2.564 2.012,-1.715 3.234,-3.9 3.666,-6.571 H 6.378 c -0.402,1.882 -1.341,3.414 -2.801,4.613 -1.476,1.184 -3.189,1.776 -5.171,1.776 -2.31,0 -4.247,-0.789 -5.797,-2.383 -1.565,-1.593 -2.34,-3.581 -2.34,-5.963 0,-2.382 0.775,-4.37 2.34,-5.964 1.55,-1.593 3.487,-2.397 5.797,-2.397 1.982,0 3.695,0.591 5.171,1.791"
         fill="#ffffff"
         id="path19" />
      <path
         transform="matrix(1,0,0,-1,370.6885,494.15333)"
         d="M 0,0 H 2.787 V -21.441 H -0.089 L -11.996,-4.75 v -16.691 h -2.801 V 0 h 2.891 L 0,-16.752 Z"
         fill="#ffffff"
         id="path21" />
      <path
         transform="matrix(1,0,0,-1,0,850.39)"
         d="m 393.704,356.237 h 2.802 v -21.441 h -2.802 z m -0.179,2.079 3.175,4.02 h 3.352 l -3.725,-4.02 z"
         fill="#ffffff"
         id="path23" />
      <path
         transform="matrix(1,0,0,-1,455.585,515.5947)"
         d="m 0,0 h -3.562 l -9.715,9.666 V 0 h -2.802 v 21.441 h 2.802 v -9.438 l 9.551,9.438 h 3.517 L -10.655,10.82 Z"
         fill="#ffffff"
         id="path25" />
      <path
         transform="matrix(1,0,0,-1,477.9287,507.76463)"
         d="M 0,0 H 8.241 L 4.113,10.53 Z M 11.311,-7.83 9.269,-2.641 H -1.043 L -3.085,-7.83 H -6.08 L 2.488,13.611 H 5.827 L 14.396,-7.83 Z"
         fill="#ffffff"
         id="path27" />
      <path
         transform="matrix(1,0,0,-1,525.502,494.15333)"
         d="M 0,0 H 2.787 V -21.441 H -0.089 L -11.995,-4.75 v -16.691 h -2.802 V 0 h 2.891 L 0,-16.752 Z"
         fill="#ffffff"
         id="path29" />
      <path
         transform="matrix(1,0,0,-1,550.5742,512.7871)"
         d="m 0,0 c -2.102,2.124 -3.16,4.765 -3.16,7.921 0,3.141 1.058,5.781 3.16,7.905 2.101,2.125 4.724,3.187 7.853,3.187 2.787,0 5.201,-0.849 7.212,-2.564 2.012,-1.715 3.234,-3.9 3.666,-6.571 h -2.906 c -0.402,1.882 -1.341,3.414 -2.801,4.613 -1.475,1.184 -3.189,1.776 -5.171,1.776 -2.31,0 -4.248,-0.789 -5.796,-2.383 -1.566,-1.593 -2.34,-3.581 -2.34,-5.963 0,-2.382 0.774,-4.37 2.34,-5.964 1.548,-1.593 3.486,-2.397 5.796,-2.397 1.982,0 3.696,0.591 5.171,1.791 1.46,1.183 2.399,2.715 2.801,4.613 h 2.906 C 18.299,3.293 17.077,1.108 15.065,-0.606 13.054,-2.321 10.64,-3.187 7.853,-3.187 4.724,-3.187 2.101,-2.124 0,0"
         fill="#ffffff"
         id="path31" />
      <path
         transform="matrix(1,0,0,-1,591.0547,512.9238)"
         d="M 0,0 H 9.001 V -2.671 H -2.802 V 18.771 H 8.852 V 16.1 H 0 V 9.454 H 7.853 V 6.783 H 0 Z"
         fill="#ffffff"
         id="path33" />
      <path
         transform="matrix(1,0,0,-1,621.9668,512.9238)"
         d="M 0,0 H 8.092 V -2.671 H -2.802 V 18.771 H 0 Z"
         fill="#ffffff"
         id="path35" />
      <path
         transform="matrix(1,0,0,-1,662.251,488.0537)"
         d="m 0,0 -3.726,-4.021 h -2.8 L -3.353,0 Z m -9.06,-19.711 h 8.241 l -4.128,10.53 z m 11.311,-7.83 -2.042,5.189 h -10.313 l -2.041,-5.189 H -15.14 L -6.571,-6.1 h 3.338 l 8.568,-21.441 z"
         fill="#ffffff"
         id="path37" />
      <path
         transform="matrix(1,0,0,-1,688.7686,496.82423)"
         d="m 0,0 v -7.769 h 3.979 c 1.087,0 1.982,0.365 2.682,1.108 0.7,0.728 1.058,1.654 1.058,2.777 0,1.123 -0.358,2.048 -1.058,2.792 C 5.945,-0.364 5.052,0 3.979,0 Z M 4.947,4.75 H 1.743 l -3.055,4.021 h 2.504 l 2.176,-2.58 2.16,2.58 H 8.032 Z M 7.54,-18.771 0.402,-10.257 H 0 v -8.514 H -2.802 V 2.671 h 6.84 c 1.863,0 3.428,-0.622 4.68,-1.866 1.252,-1.244 1.877,-2.792 1.877,-4.659 0,-1.821 -0.625,-3.338 -1.863,-4.567 C 7.496,-9.65 5.945,-10.257 4.098,-10.257 H 3.845 l 7.212,-8.514 z"
         fill="#ffffff"
         id="path39" />
      <path
         transform="matrix(1,0,0,-1,105.0103,452.9306)"
         d="M 0,0 H 14.326 V -13.52 H -14.326 V 38.251 H 0 Z"
         fill="#ffffff"
         id="path41" />
      <path
         transform="matrix(1,0,0,-1,151.5063,467.3662)"
         d="m 0,0 c -6.265,0 -11.468,2.015 -15.645,6.046 -4.176,4.029 -6.266,9.086 -6.266,15.132 v 31.509 h 14.326 v -31.29 c 0,-2.162 0.733,-3.958 2.199,-5.386 1.428,-1.466 3.224,-2.198 5.386,-2.198 2.162,0 3.957,0.732 5.422,2.198 1.429,1.428 2.162,3.224 2.162,5.386 v 31.29 H 21.91 V 21.178 C 21.91,15.132 19.821,10.075 15.645,6.046 11.468,2.015 6.265,0 0,0"
         fill="#ffffff"
         id="path43" />
      <path
         transform="matrix(1,0,0,-1,234.5986,466.45024)"
         d="M 0,0 H -17.77 L -31.656,19.968 V 0 h -14.326 v 51.771 h 14.326 V 31.949 l 13.739,19.822 H -0.44 L -18.979,26.05 Z"
         fill="#ffffff"
         id="path45" />
      <path
         transform="matrix(1,0,0,-1,264.5049,446.1162)"
         d="M 0,0 H 9.965 L 5.019,15.535 Z M 21.689,46.604 11.615,34.733 H -2.491 l 7.364,11.871 z m -5.165,-66.938 -2.344,7.145 H -4.213 l -2.309,-7.145 H -21.91 l 18.612,51.771 h 16.891 l 18.613,-51.771 z"
         fill="#ffffff"
         id="path47" />
      <path
         transform="matrix(1,0,0,-1,330.9629,411.3828)"
         d="m 0,0 h -16.231 l -7.328,11.871 h 12.604 l 2.821,-4.506 2.858,4.506 H 7.328 Z m 1.062,-24.584 c 1.576,-0.696 3.188,-1.686 4.836,-2.931 3.225,-2.528 5.057,-6.485 5.057,-11.724 0,-4.764 -1.796,-8.757 -5.423,-11.945 -3.627,-3.187 -8.17,-4.799 -13.629,-4.799 -5.459,0 -10.04,1.612 -13.667,4.873 -3.664,3.224 -5.495,7.254 -5.495,12.09 h 14.729 c 0,-2.308 2.014,-4.176 4.653,-4.176 3.48,-0.111 5.642,3.37 2.747,5.348 -0.915,0.697 -1.795,1.173 -2.711,1.466 -0.916,0.293 -2.199,0.659 -3.81,1.136 -9.966,2.675 -14.949,8.244 -14.912,16.78 0,4.544 1.759,8.354 5.239,11.468 3.48,3.078 7.841,4.617 13.043,4.617 5.313,0 9.709,-1.539 13.263,-4.654 3.518,-3.114 5.276,-6.997 5.276,-11.651 H -4.434 c 0,2.015 -1.722,3.554 -3.92,3.554 -3.078,0.184 -4.763,-2.967 -2.418,-4.836 1.429,-1.246 2.968,-1.795 6.192,-2.675 2.162,-0.623 4.03,-1.245 5.642,-1.941"
         fill="#ffffff"
         id="path49" />
      <path
         transform="matrix(1,0,0,-1,398.3711,437.94633)"
         d="M 0,0 C 2.674,0 4.726,2.089 4.726,4.91 4.726,7.695 2.674,9.747 0,9.747 H -5.643 V 0 Z m 0.293,23.267 c 5.459,0 10.003,-1.759 13.666,-5.24 3.628,-3.517 5.46,-7.914 5.46,-13.153 0,-5.239 -1.832,-9.637 -5.46,-13.116 -3.663,-3.482 -8.207,-5.239 -13.666,-5.239 h -5.936 v -15.023 h -14.325 v 51.771 z"
         fill="#ffffff"
         id="path51" />
      <path
         transform="matrix(1,0,0,-1,443.2129,446.1162)"
         d="M 0,0 H 9.966 L 5.02,15.535 Z m 16.524,-20.334 -2.344,7.145 H -4.213 l -2.308,-7.145 H -21.91 l 18.612,51.771 h 16.891 l 18.613,-51.771 z"
         fill="#ffffff"
         id="path53" />
      <path
         transform="matrix(1,0,0,-1,516.3193,414.67973)"
         d="M 0,0 V -13.52 H -11.688 V -51.771 H -26.013 V -13.52 H -37.737 V 0 Z"
         fill="#ffffff"
         id="path55" />
      <path
         transform="matrix(1,0,0,-1,541.7334,428.19923)"
         d="m 0,0 v -9.747 h 4.873 c 2.674,0 4.726,2.089 4.726,4.91 C 9.599,-2.052 7.547,0 4.873,0 Z M 8.098,-38.251 0.88,-22.203 H 0 V -38.251 H -14.326 V 13.52 H 5.166 c 5.459,0 10.003,-1.723 13.666,-5.203 3.628,-3.482 5.46,-7.84 5.46,-13.044 0,-6.302 -3.114,-11.578 -8.244,-14.692 l 9.819,-18.832 z"
         fill="#ffffff"
         id="path57" />
      <path
         transform="matrix(1,0,0,-1,620.7363,414.67973)"
         d="M 0,0 H 18.246 V -51.771 H 3.92 v 26.563 L -6.669,-51.771 h -9.599 l -10.588,26.563 V -51.771 H -41.183 V 0 h 18.466 l 11.395,-28.944 z"
         fill="#ffffff"
         id="path59" />
      <path
         transform="matrix(1,0,0,-1,671.25,446.1162)"
         d="M 0,0 H 9.966 L 5.02,15.535 Z m 16.524,-20.334 -2.344,7.145 H -4.213 l -2.308,-7.145 H -21.91 l 18.612,51.771 h 16.891 l 18.612,-51.771 z"
         fill="#ffffff"
         id="path61" />
      <path
         transform="matrix(1,0,0,-1,745.248,414.67973)"
         d="M 0,0 H 14.325 V -51.771 H 0 L -17.11,-25.28 V -51.771 H -31.437 V 0 H -17.11 L 0,-26.49 Z"
         fill="#ffffff"
         id="path63" />
      <path
         transform="matrix(1,0,0,-1,454.9766,425.36283)"
         d="m 0,0 c 1.328,-0.932 2.314,-0.321 3.185,-0.076 26.4,7.417 52.364,15.833 76.674,27.942 15.042,7.493 28.26,16.881 37.095,30.561 7.677,11.888 2.546,22.013 -12.41,24.481 C 93.456,84.739 82.298,84.137 71.255,82.754 37.461,78.523 6.673,66.969 -22.09,50.688 c -5.099,-2.887 -10.23,-5.77 -14.76,-9.268 21.084,-14.937 20.002,-34.877 15.94,-56.142 0.914,0.971 1.309,1.321 1.616,1.726 15.39,20.329 31.819,39.972 47.851,59.878 3.226,4.007 5.461,4.052 8.903,-0.147 C 25.749,30.79 12.101,15.891 0,0 m -30.48,-41.528 c 10.685,0.763 20.368,0.739 30.043,0.402 5.205,-0.182 10.401,-0.629 15.59,-1.062 2.095,-0.174 3.945,-0.973 4.846,-2.874 0.53,-1.119 0.02,-2.047 -0.971,-2.771 -1.789,-1.309 -3.884,-1.368 -5.713,-0.444 -2.157,1.09 -4.396,1.164 -6.701,1.312 -13.614,0.87 -27.204,0.499 -41.469,-0.577 -4.752,-7.23 -9.844,-14.661 -12.695,-23.131 -0.758,-2.251 -1.133,-4.549 -4.661,-3.824 -3.574,0.736 -4.101,3.164 -3.403,5.806 1.191,4.504 4.295,8.285 6.16,12.553 0.997,2.28 2.227,4.477 3.453,6.914 -3.647,1.059 -6.75,0.081 -9.782,-0.335 -29.308,-4.027 -58.691,-7.751 -87.392,-14.682 -8.654,-2.09 -17.129,-4.779 -25.705,-7.137 -2.435,-0.67 -5.011,-1.485 -7.033,1.133 1.576,2.939 4.708,3.539 7.425,4.465 23.117,7.879 47.149,12.523 71.451,16.087 17.269,2.533 34.483,5.459 51.947,6.786 1.585,0.12 2.764,0.615 3.467,1.952 8.688,16.527 17.274,33.088 15.215,52.198 -0.842,7.812 -2.752,15.322 -8.72,21.442 -2.447,2.508 -5.133,4.567 -9.159,4.7 -2.05,0.067 -3.995,0.779 -4.475,2.836 0,1.595 1.215,2.202 2.243,2.886 31.663,21.044 66.172,36.553 104.977,43.229 14.771,2.541 29.779,4.282 44.874,1.618 5.42,-0.956 10.713,-2.312 15.41,-5.1 8.567,-5.083 11.493,-12.677 8.096,-21.589 -3.202,-8.402 -9.323,-15.04 -16.172,-21.167 C 97.642,28.446 81.487,21.34 65.11,14.63 42.804,5.49 19.858,-2.063 -3.911,-7.48 -5.221,-7.778 -6.397,-8.173 -7.187,-9.217 -15.012,-19.581 -22.854,-29.933 -30.48,-41.528"
         fill="#dcbe8f"
         id="path65" />
      <path
         transform="matrix(1,0,0,-1,333.6309,477.81834)"
         d="m 0,0 c -6.109,-1.52 -9.216,0.962 -7.83,5.885 2.398,8.516 7.664,15.827 12.497,23.265 20.663,31.798 44.234,61.812 68.421,91.44 1.975,2.419 4.081,4.757 5.471,7.514 2.506,0.972 4.68,0.632 6.148,-1.414 1.582,-2.207 -0.511,-3.672 -1.73,-5.188 C 57.755,90.132 32.655,58.685 10.983,25.13 7.406,19.591 3.869,14.015 1.112,8.072 -0.06,5.547 -1.326,3.048 0,0"
         fill="#dcbe8f"
         id="path67" />
    </g>
  </g>
</svg>
